<svg width="50" height="37" viewBox="0 0 50 37" fill="none" xmlns="http://www.w3.org/2000/svg">
<path d="M49.8092 26.4773C48.6574 32.8373 42.5654 37.06 36.2029 35.9056C29.8429 34.7513 25.6476 28.4161 26.1391 22.2646C26.7076 15.1325 31.2951 6.23795 41.7586 0.141065C42.6449 -0.375283 43.6428 0.625141 43.1538 1.52875C41.9026 3.83494 40.3362 7.55861 39.3904 12.7419C46.3189 13.4023 51.0206 19.8095 49.8092 26.4773Z" fill="#E3B4B2" fill-opacity="0.4"/>
<path d="M23.7091 26.4773C22.5573 32.8373 16.4653 37.06 10.1028 35.9056C3.74282 34.7513 -0.452505 28.4161 0.0390187 22.2646C0.607498 15.1325 5.19505 6.23795 15.6585 0.141065C16.5448 -0.375283 17.5427 0.625141 17.0537 1.52875C15.8025 3.83494 14.2361 7.55861 13.2903 12.7419C20.2188 13.4023 24.9205 19.8095 23.7091 26.4773Z" fill="#E3B4B2" fill-opacity="0.4"/>
</svg>
